<?xml version="1.0" encoding="utf-8"?>
<svg viewBox="0 0 300 300" xmlns="http://www.w3.org/2000/svg">
  <g transform="matrix(0.1, 0, 0, -0.1, -92.431442, 559.512634)" fill="#000000" stroke="none">
    <path d="M 2197.831 5480.217 C 2075.831 5460.217 1998.831 5439.217 1883.831 5394.217 C 1556.831 5267.217 1276.831 5007.217 1123.831 4690.217 C 1029.831 4495.217 990.831 4341.217 981.831 4129.217 C 967.831 3801.217 1049.831 3514.217 1233.831 3250.217 C 1398.831 3012.217 1616.831 2847.217 1883.831 2757.217 C 2037.831 2705.217 2127.831 2690.217 2293.831 2691.217 C 2473.831 2691.217 2542.831 2706.217 2678.831 2772.217 C 2825.831 2843.217 2935.831 2964.217 2991.831 3116.217 C 3036.831 3236.217 3038.831 3264.217 3038.831 3989.217 L 3027.831 4677.217 L 3012.23 4722.761 C 2978.23 4756.761 2955.831 4755.217 2914.831 4755.217 C 2875.831 4755.217 2849.285 4755.5 2817.285 4727.5 L 2797.831 4687.217 L 2788.831 4323.217 L 2783.831 3960.217 L 2752.831 3895.217 C 2735.831 3859.217 2708.831 3815.217 2692.831 3796.217 C 2651.831 3746.217 2567.831 3697.217 2494.831 3678.217 C 2334.831 3636.217 2141.831 3728.217 2072.831 3880.217 C 2033.831 3964.217 2028.831 4028.217 2029.831 4357.217 C 2030.831 4631.217 2028.831 4667.217 2013.831 4693.217 C 1989.831 4733.217 1948.831 4755.217 1898.831 4755.217 C 1862.831 4755.217 1834.831 4754.217 1800.831 4721.217 L 1777.831 4676.217 L 1780.831 4293.217 L 1800.831 3910.217 L 1814.831 3836.217 C 1951.831 3461.217 2381.831 3299.217 2723.831 3495.217 C 2752.831 3511.217 2779.831 3525.217 2783.831 3525.217 C 2795.831 3525.217 2780.831 3327.217 2764.831 3269.217 C 2709.831 3064.217 2537.831 2955.217 2272.831 2955.217 C 1934.831 2955.217 1621.831 3126.217 1430.831 3415.217 C 1308.831 3599.217 1249.831 3785.217 1241.831 4011.217 C 1234.831 4177.217 1247.831 4279.217 1290.831 4415.217 C 1350.831 4603.217 1432.831 4739.217 1577.831 4888.217 C 1719.831 5035.217 1912.831 5147.217 2113.831 5200.217 C 2295.831 5248.217 2525.831 5246.217 2724.831 5194.217 C 3112.831 5093.217 3431.831 4769.217 3544.831 4364.217 C 3579.831 4237.217 3589.831 3986.217 3564.831 3852.217 C 3522.831 3632.217 3420.831 3429.217 3269.831 3263.217 C 3204.831 3192.217 3193.831 3163.217 3209.831 3107.217 C 3230.831 3031.217 3317.831 2993.217 3387.831 3029.217 C 3453.831 3064.217 3605.831 3261.217 3681.831 3411.217 C 3791.831 3630.217 3838.831 3824.217 3838.831 4065.217 C 3838.831 4209.217 3827.831 4292.217 3793.831 4425.217 C 3661.831 4941.217 3249.831 5337.217 2718.831 5462.217 C 2584.831 5493.217 2330.831 5502.217 2197.831 5480.217 Z" style="fill: rgb(242, 67, 1); paint-order: stroke;"/>
  </g>
</svg>
